<svg xmlns="http://www.w3.org/2000/svg" viewBox="0 0 182 190" width="182" height="190" role="img" aria-label="AraraTech">
  <title>AraraTech</title>
  <defs>
    <linearGradient id="az" x1="0" y1="0" x2="0" y2="1">
      <stop offset="0" stop-color="#069ED2"/><stop offset="1" stop-color="#0BBBF2"/>
    </linearGradient>
    <linearGradient id="vd" x1="0" y1="0" x2="0" y2="1">
      <stop offset="0" stop-color="#A3C632"/><stop offset="1" stop-color="#778F30"/>
    </linearGradient>
  </defs>
  <path fill="url(#az)" fill-rule="evenodd" d="M103.00,155.42 C97.15,154.70 92.64,153.57 89.00,151.94 C80.00,147.89 73.62,143.69 70.44,139.72 C68.31,137.05 67.92,135.33 68.03,128.96 C68.11,124.72 68.14,124.49 69.39,119.46 C71.43,111.23 73.57,106.30 75.53,105.32 C77.28,104.45 78.53,104.93 82.78,108.10 C87.55,111.65 88.72,112.40 92.06,114.01 C95.06,115.46 95.85,115.68 98.00,115.68 C100.51,115.68 100.83,115.56 109.15,111.42 C115.64,108.20 116.98,107.59 120.81,106.19 C122.69,105.50 124.16,104.78 126.44,103.44 C127.33,102.91 133.77,99.62 140.75,96.13 C147.73,92.64 154.37,89.25 155.50,88.60 C161.74,85.03 163.80,86.89 162.52,94.94 C162.31,96.24 162.08,98.07 162.00,99.00 C161.12,109.64 155.77,124.75 150.79,130.69 C145.55,136.93 138.44,142.61 131.01,146.50 C129.59,147.24 127.85,148.19 127.12,148.62 C124.22,150.35 123.40,150.69 117.44,152.68 C110.84,154.88 106.02,155.80 103.00,155.42 Z M49.75,141.24 C48.56,141.06 43.07,139.25 40.87,138.31 C38.29,137.21 33.15,134.11 31.12,132.43 C26.09,128.27 22.90,121.84 21.94,113.94 C21.48,110.18 21.44,109.32 21.67,107.31 C21.78,106.35 21.93,104.86 22.00,104.00 C22.33,100.08 23.39,94.98 25.00,89.50 C25.47,87.88 26.43,84.31 27.11,81.56 C27.80,78.81 28.84,75.07 29.42,73.25 C30.00,71.43 30.63,69.38 30.81,68.69 C31.00,68.00 31.56,65.99 32.07,64.22 C32.58,62.45 33.42,59.55 33.93,57.78 C34.44,56.01 35.01,54.00 35.19,53.31 C35.37,52.62 35.94,50.77 36.44,49.19 C37.36,46.27 37.52,45.68 38.31,42.02 C39.78,35.22 41.56,31.92 46.20,27.37 C50.29,23.37 52.06,22.32 58.19,20.27 C64.03,18.32 67.93,17.39 71.93,17.00 C73.31,16.87 75.11,16.66 75.94,16.55 C77.79,16.30 78.99,16.36 82.25,16.88 C87.34,17.69 89.47,18.31 94.88,20.57 C97.14,21.52 114.99,30.49 117.00,31.70 C118.00,32.30 119.83,33.34 121.06,34.03 C123.64,35.45 125.66,36.76 128.25,38.68 C129.25,39.42 132.73,41.81 136.00,44.00 C148.90,52.63 151.09,54.69 153.86,60.82 C155.44,64.32 155.90,66.32 155.92,69.62 C155.95,74.76 155.08,75.63 147.00,78.50 C145.80,78.93 144.18,79.56 143.41,79.89 C142.63,80.23 141.34,80.79 140.53,81.14 C138.93,81.83 134.87,83.24 133.38,83.62 C130.49,84.35 129.19,84.00 125.62,81.50 C124.63,80.80 123.18,79.84 122.41,79.36 C121.63,78.89 120.34,78.10 119.53,77.60 C118.72,77.11 114.88,74.59 111.00,72.00 C107.12,69.41 102.84,66.61 101.50,65.78 C100.16,64.94 98.18,63.63 97.10,62.85 C91.22,58.61 87.68,57.10 83.69,57.09 C77.97,57.07 76.21,59.24 73.63,69.51 C72.64,73.43 72.61,73.54 71.00,78.50 C69.18,84.10 68.30,87.35 67.19,92.56 C66.56,95.49 66.56,95.52 65.81,98.12 C65.44,99.40 64.99,101.00 64.81,101.69 C64.63,102.38 64.01,104.41 63.43,106.22 C62.86,108.02 62.04,110.86 61.62,112.53 C61.20,114.20 60.47,116.88 60.00,118.50 C59.53,120.12 58.85,122.59 58.50,124.00 C57.14,129.45 54.42,138.17 53.68,139.46 C52.84,140.91 51.52,141.51 49.75,141.24 Z"/>
  <path fill="url(#vd)" fill-rule="evenodd" d="M103.00,155.42 C97.15,154.70 92.64,153.57 89.00,151.94 C80.00,147.89 73.62,143.69 70.44,139.72 C68.31,137.05 67.92,135.33 68.03,128.96 C68.11,124.72 68.14,124.49 69.39,119.46 C71.43,111.23 73.57,106.30 75.53,105.32 C77.28,104.45 78.53,104.93 82.78,108.10 C87.55,111.65 88.72,112.40 92.06,114.01 C95.06,115.46 95.85,115.68 98.00,115.68 C100.51,115.68 100.83,115.56 109.15,111.42 C115.64,108.20 116.98,107.59 120.81,106.19 C122.69,105.50 124.16,104.78 126.44,103.44 C127.33,102.91 133.77,99.62 140.75,96.13 C147.73,92.64 154.37,89.25 155.50,88.60 C161.74,85.03 163.80,86.89 162.52,94.94 C162.31,96.24 162.08,98.07 162.00,99.00 C161.12,109.64 155.77,124.75 150.79,130.69 C145.55,136.93 138.44,142.61 131.01,146.50 C129.59,147.24 127.85,148.19 127.12,148.62 C124.22,150.35 123.40,150.69 117.44,152.68 C110.84,154.88 106.02,155.80 103.00,155.42 Z"/>
  <circle fill="#FFFFFF" cx="96.71" cy="87.77" r="11.14"/>
</svg>
